<?xml version="1.0" encoding="UTF-8" standalone="no"?>
<!-- Created with Inkscape (http://www.inkscape.org/) -->

<svg
   xmlns:dc="http://purl.org/dc/elements/1.1/"
   xmlns:cc="http://creativecommons.org/ns#"
   xmlns:rdf="http://www.w3.org/1999/02/22-rdf-syntax-ns#"
   xmlns:svg="http://www.w3.org/2000/svg"
   xmlns="http://www.w3.org/2000/svg"
   xmlns:sodipodi="http://sodipodi.sourceforge.net/DTD/sodipodi-0.dtd"
   xmlns:inkscape="http://www.inkscape.org/namespaces/inkscape"
   width="210mm"
   height="297mm"
   viewBox="0 0 210 297"
   version="1.1"
   id="svg8"
   inkscape:version="0.92.4 5da689c313, 2019-01-14"
   sodipodi:docname="logo.svg">
  <defs
     id="defs2">
    <inkscape:path-effect
       end_linecap_type="zerowidth"
       miter_limit="4"
       linejoin_type="extrp_arc"
       start_linecap_type="zerowidth"
       interpolator_beta="0.2"
       interpolator_type="CubicBezierJohan"
       sort_points="true"
       offset_points="6.9482452e-005,0.77400088"
       is_visible="true"
       id="path-effect1371"
       effect="powerstroke" />
    <inkscape:path-effect
       effect="powerstroke"
       id="path-effect1367"
       is_visible="true"
       offset_points="6.9482452e-005,0.77400088"
       sort_points="true"
       interpolator_type="CubicBezierJohan"
       interpolator_beta="0.2"
       start_linecap_type="zerowidth"
       linejoin_type="extrp_arc"
       miter_limit="4"
       end_linecap_type="zerowidth" />
    <inkscape:path-effect
       effect="powerstroke"
       id="path-effect1339"
       is_visible="true"
       offset_points="0,0.37318869"
       sort_points="true"
       interpolator_type="CubicBezierJohan"
       interpolator_beta="0.2"
       start_linecap_type="zerowidth"
       linejoin_type="extrp_arc"
       miter_limit="4"
       end_linecap_type="zerowidth" />
    <inkscape:path-effect
       end_linecap_type="zerowidth"
       miter_limit="4"
       linejoin_type="extrp_arc"
       start_linecap_type="zerowidth"
       interpolator_beta="0.2"
       interpolator_type="CubicBezierJohan"
       sort_points="true"
       offset_points="0,0.37318869"
       is_visible="true"
       id="path-effect1291"
       effect="powerstroke" />
    <inkscape:path-effect
       end_linecap_type="zerowidth"
       miter_limit="4"
       linejoin_type="extrp_arc"
       start_linecap_type="zerowidth"
       interpolator_beta="0.2"
       interpolator_type="CubicBezierJohan"
       sort_points="true"
       offset_points="0,0.37318869"
       is_visible="true"
       id="path-effect1287"
       effect="powerstroke" />
    <inkscape:path-effect
       effect="powerstroke"
       id="path-effect1283"
       is_visible="true"
       offset_points="0,0.37318869"
       sort_points="true"
       interpolator_type="CubicBezierJohan"
       interpolator_beta="0.2"
       start_linecap_type="zerowidth"
       linejoin_type="extrp_arc"
       miter_limit="4"
       end_linecap_type="zerowidth" />
    <inkscape:path-effect
       effect="powerstroke"
       id="path-effect1051"
       is_visible="true"
       offset_points="3,0.13229166"
       sort_points="true"
       interpolator_type="CubicBezierJohan"
       interpolator_beta="0.2"
       start_linecap_type="zerowidth"
       linejoin_type="extrp_arc"
       miter_limit="4"
       end_linecap_type="zerowidth" />
    <inkscape:path-effect
       effect="powerstroke"
       id="path-effect870"
       is_visible="true"
       offset_points="3.9708741,2.363754"
       sort_points="true"
       interpolator_type="CubicBezierJohan"
       interpolator_beta="0.2"
       start_linecap_type="zerowidth"
       linejoin_type="extrp_arc"
       miter_limit="4"
       end_linecap_type="zerowidth" />
    <inkscape:path-effect
       effect="powerstroke"
       id="path-effect817"
       is_visible="true"
       offset_points="3.9895818,2.5063313"
       sort_points="true"
       interpolator_type="CubicBezierJohan"
       interpolator_beta="0.2"
       start_linecap_type="zerowidth"
       linejoin_type="extrp_arc"
       miter_limit="4"
       end_linecap_type="zerowidth" />
  </defs>
  <sodipodi:namedview
     id="base"
     pagecolor="#ffffff"
     bordercolor="#666666"
     borderopacity="1.0"
     inkscape:pageopacity="0.0"
     inkscape:pageshadow="2"
     inkscape:zoom="11.2"
     inkscape:cx="321.72358"
     inkscape:cy="838.10132"
     inkscape:document-units="mm"
     inkscape:current-layer="layer1"
     showgrid="false"
     inkscape:pagecheckerboard="true"
     inkscape:window-width="1912"
     inkscape:window-height="1044"
     inkscape:window-x="4"
     inkscape:window-y="32"
     inkscape:window-maximized="0"
     inkscape:snap-global="true" />
  <metadata
     id="metadata5">
    <rdf:RDF>
      <cc:Work
         rdf:about="">
        <dc:format>image/svg+xml</dc:format>
        <dc:type
           rdf:resource="http://purl.org/dc/dcmitype/StillImage" />
        <dc:title />
      </cc:Work>
    </rdf:RDF>
  </metadata>
  <g
     inkscape:label="Calque 1"
     inkscape:groupmode="layer"
     id="layer1">
    <rect
       style="opacity:1;fill:#030303;fill-opacity:1;stroke:none;stroke-width:1.33415163;stroke-linecap:round;stroke-linejoin:round;stroke-miterlimit:4;stroke-dasharray:none;stroke-dashoffset:11.31676006;stroke-opacity:1;paint-order:stroke fill markers"
       id="rect819"
       width="373.4628"
       height="129.24417"
       x="-123.96942"
       y="-96.352783"
       inkscape:export-xdpi="300"
       inkscape:export-ydpi="300" />
    <path
       style="fill:#ffffff;fill-opacity:1;fill-rule:nonzero;stroke:#000000;stroke-width:1;stroke-linecap:round;stroke-linejoin:round;stroke-miterlimit:4;stroke-dasharray:none;stroke-opacity:1;paint-order:stroke fill markers"
       d="m 373.34581,235.10169 c 0.92703,-46.22162 1.89965,-74.08619 3.01774,-109.19635 0.35678,-11.20358 0.63369,-20.69822 0.6869,-27.643172 0.0253,-3.298845 0.002,-6.107483 -0.0879,-8.414015 -0.0866,-2.230218 -0.23525,-4.012196 -0.46696,-5.349296 -0.44228,-2.555459 -1.20999,-4.757921 -2.25384,-6.413076 -0.50688,-0.803728 -1.08652,-1.490018 -1.73569,-2.018728 -0.64101,-0.522053 -1.35846,-0.897006 -2.14095,-1.06627 -0.77795,-0.168282 -1.59192,-0.126585 -2.4097,0.144217 -0.80662,0.267103 -1.59359,0.749035 -2.34385,1.433274 -1.4844,1.35377 -2.85453,3.524921 -4.01554,6.54527 -1.02923,2.654705 -2.25701,4.290023 -3.41186,5.176167 -0.57589,0.441892 -1.12085,0.688495 -1.61009,0.800988 -0.49023,0.112717 -0.94618,0.09635 -1.36542,-0.01195 -0.84918,-0.219359 -1.7068,-0.863781 -2.40727,-1.969282 -0.73204,-1.15532 -1.24961,-2.753035 -1.37968,-4.689363 -0.16437,-2.336347 -0.40479,-5.968159 -0.66584,-10.005706 -0.28411,-4.394117 -0.58175,-9.098237 -0.84434,-13.301496 -0.62134,-9.946067 -0.968,-15.869175 -1.01251,-16.515629 -0.002,-0.03065 -2.3635,0.08494 -2.3635,0.08494 0,0 -2.35496,0.209014 -2.35284,0.239775 -0.009,-0.127717 0.52063,6.765592 1.31723,16.509044 0.33737,4.126457 0.74179,8.979272 1.12627,13.300601 0.35552,3.99579 0.70998,7.719171 0.98955,10.051452 0.28828,2.454922 1.0903,4.643678 2.33038,6.317466 1.18942,1.605411 2.81193,2.761812 4.69032,3.048752 0.91718,0.140107 1.85416,0.06405 2.76869,-0.237595 0.90317,-0.297904 1.75948,-0.807143 2.54887,-1.508501 1.55633,-1.382775 2.88496,-3.538511 3.8846,-6.476516 0.97164,-2.86285 2.08285,-4.767537 3.17478,-5.912414 0.54538,-0.571821 1.07738,-0.945457 1.57929,-1.164428 0.50186,-0.21895 0.99687,-0.293856 1.48615,-0.237718 0.49975,0.05734 1.01907,0.254791 1.54317,0.613823 0.53287,0.365044 1.05783,0.88875 1.55223,1.569642 1.02348,1.409544 1.86099,3.414501 2.39567,5.873538 0.27501,1.263283 0.4761,2.991217 0.61499,5.208415 0.14322,2.286237 0.21947,5.079475 0.24441,8.374581 0.0527,6.962564 -0.12521,16.399184 -0.40019,27.633784 -0.69611,28.44121 -1.89989,70.14716 -2.68326,109.20577 z"
       id="path868"
       inkscape:connector-curvature="0"
       inkscape:path-effect="#path-effect870"
       inkscape:original-d="m 373.34581,235.10169 c 2.0212,-100.77636 4.6845,-140.255561 2.68691,-150.512691 -1.99758,-10.25714 -9.05935,-12.79667 -13.31543,-1.05888 -4.04498,11.15528 -12.34153,8.06799 -13.19859,-0.91852 -0.85706,-8.9865 -2.9832,-39.91938 -2.9832,-39.91938"
       sodipodi:nodetypes="czszc" />
    <rect
       style="fill:#ffffff;fill-opacity:1;stroke:none;stroke-width:0.48012164;stroke-linecap:round;stroke-linejoin:round;stroke-miterlimit:4;stroke-dasharray:none;stroke-opacity:1"
       id="rect4545"
       width="1.76018"
       height="24.856066"
       x="52.597378"
       y="86.922943"
       ry="1.0690781" />
    <g
       aria-label="AS ralYs"
       transform="matrix(0.26458333,0,0,0.26458333,-12.872195,-16.84119)"
       style="font-style:normal;font-variant:normal;font-weight:normal;font-stretch:normal;font-size:133.33332825px;line-height:1.25;font-family:'A-Space Demo';-inkscape-font-specification:'A-Space Demo';letter-spacing:0px;word-spacing:0px;fill:#000000;fill-opacity:1;stroke:none;stroke-width:3.77952766;stroke-linecap:round;stroke-linejoin:round;stroke-miterlimit:4;stroke-dasharray:none;stroke-opacity:1;paint-order:stroke fill markers"
       id="flowRoot815">
      <path
         d="M 313.91874,390.02513 H 202.05207 c -0.8,0 -1.51111,-0.26667 -2.13333,-0.8 -0.53333,-0.62222 -0.8,-1.33333 -0.8,-2.13333 0,-0.88889 0.26667,-1.60001 0.8,-2.13334 0.62222,-0.53333 1.33333,-0.8 2.13333,-0.8 h 111.86667 c 0.88889,0 1.6,0.26667 2.13333,0.8 0.62222,0.53333 0.93333,1.24445 0.93333,2.13334 0,0.8 -0.31111,1.51111 -0.93333,2.13333 -0.53333,0.53333 -1.24444,0.8 -2.13333,0.8 z m 0,47.86666 h -6 c -0.8,0 -1.51111,-0.26667 -2.13333,-0.8 -0.53333,-0.62222 -0.8,-1.33333 -0.8,-2.13333 0,-0.88889 0.26667,-1.6 0.8,-2.13333 0.62222,-0.62223 1.33333,-0.93334 2.13333,-0.93334 h 6 c 0.88889,0 1.6,0.31111 2.13333,0.93334 0.62222,0.53333 0.93333,1.24444 0.93333,2.13333 0,0.8 -0.31111,1.51111 -0.93333,2.13333 -0.53333,0.53333 -1.24444,0.8 -2.13333,0.8 z m -0.4,0 c -0.8,0 -1.51111,-0.26667 -2.13333,-0.8 -0.53333,-0.62222 -0.8,-1.33333 -0.8,-2.13333 0,-0.88889 0.26667,-1.6 0.8,-2.13333 0.62222,-0.62223 1.33333,-0.93334 2.13333,-0.93334 2.93333,0 5.64444,-0.53333 8.13333,-1.6 2.57778,-1.15555 4.8,-2.66666 6.66667,-4.53333 1.86667,-1.86667 3.33333,-4.04444 4.4,-6.53333 1.15555,-2.57778 1.73333,-5.33334 1.73333,-8.26667 0,-2.93333 -0.57778,-5.64444 -1.73333,-8.13333 -1.06667,-2.57778 -2.53333,-4.8 -4.4,-6.66667 -1.86667,-1.86667 -4.08889,-3.33333 -6.66667,-4.4 -2.48889,-1.15555 -5.2,-1.73333 -8.13333,-1.73333 -0.8,0 -1.51111,-0.26667 -2.13333,-0.8 -0.53333,-0.62222 -0.8,-1.33333 -0.8,-2.13333 0,-0.88889 0.26667,-1.60001 0.8,-2.13334 0.62222,-0.53333 1.33333,-0.8 2.13333,-0.8 3.73333,0 7.2,0.71111 10.4,2.13334 3.28889,1.42222 6.13333,3.33333 8.53333,5.73333 2.48889,2.4 4.44444,5.24444 5.86667,8.53333 1.42222,3.2 2.13333,6.66667 2.13333,10.4 0,3.73333 -0.71111,7.24444 -2.13333,10.53333 -1.42223,3.2 -3.37778,6.04445 -5.86667,8.53334 -2.4,2.4 -5.24444,4.31111 -8.53333,5.73333 -3.2,1.42222 -6.66667,2.13333 -10.4,2.13333 z m 20.93333,48.26667 c -1.06667,0 -1.91111,-0.53333 -2.53333,-1.6 l -26.53333,-48.26667 c -0.44445,-0.71111 -0.53334,-1.42222 -0.26667,-2.13333 0.26667,-0.8 0.75556,-1.42222 1.46667,-1.86667 0.71111,-0.44444 1.42222,-0.53333 2.13333,-0.26666 0.8,0.26667 1.42222,0.75555 1.86667,1.46666 l 26.53333,48.26667 c 0.44444,0.71111 0.53333,1.46667 0.26666,2.26667 -0.26667,0.71111 -0.75555,1.28888 -1.46666,1.73333 -0.44445,0.26667 -0.93334,0.4 -1.46667,0.4 z"
         style="font-style:normal;font-variant:normal;font-weight:normal;font-stretch:normal;font-size:133.33332825px;font-family:'CF Spaceship';-inkscape-font-specification:'CF Spaceship';fill:#ffffff;fill-opacity:1;stroke:none;stroke-width:3.77952766;stroke-linecap:round;stroke-linejoin:round;stroke-miterlimit:4;stroke-dasharray:none;stroke-opacity:1;paint-order:stroke fill markers"
         id="path880"
         inkscape:connector-curvature="0"
         sodipodi:nodetypes="sscscsscssssscscsscsssscscscscscscscscscccscccsscccccccccs" />
      <path
         d="m 53.492538,482.58703 q -1.2,0 -2.13334,-0.93333 -0.8,-0.8 -0.8,-2 v -68.26667 q 0,-1.2 0.8,-2 0.93334,-0.93333 2.13334,-0.93333 1.2,0 2,0.93333 0.93333,0.8 0.93333,2 v 68.26667 q 0,1.2 -0.93333,2 -0.8,0.93333 -2,0.93333 z m 55.466662,0 q -1.2,0 -2.13333,-0.93333 -0.8,-0.8 -0.8,-2 v -68.26667 q 0,-1.2 0.8,-2 0.93333,-0.93333 2.13333,-0.93333 1.2,0 2,0.93333 0.93333,0.8 0.93333,2 v 68.26667 q 0,1.2 -0.93333,2 -0.8,0.93333 -2,0.93333 z m 0,-67.86667 q -1.2,0 -2.13333,-0.8 -0.8,-0.93333 -0.8,-2.13333 0,-5.2 -2,-9.86666 -1.86667,-4.66667 -5.333342,-8.13334 -3.33333,-3.46666 -7.86666,-5.46666 -4.4,-2 -9.6,-2 -5.2,0 -9.73333,2 -4.4,2 -7.86667,5.46666 -3.33333,3.46667 -5.33333,8.13334 -1.86667,4.66666 -1.86667,9.86666 0,1.2 -0.93333,2.13333 -0.8,0.8 -2,0.8 -1.2,0 -2.13334,-0.8 -0.8,-0.93333 -0.8,-2.13333 0,-6.4 2.4,-12.13333 2.4,-5.73333 6.53334,-9.86667 4.26666,-4.26666 9.73333,-6.66666 5.6,-2.53334 12,-2.53334 6.4,0 11.86666,2.53334 5.6,2.4 9.733342,6.66666 4.26666,4.13334 6.66666,9.86667 2.4,5.73333 2.4,12.13333 0,1.2 -0.93333,2.13333 -0.8,0.8 -2,0.8 z m -0.66667,25.06667 H 54.559198 q -1.2,0 -2.13333,-0.8 -0.8,-0.93333 -0.8,-2.13333 0,-1.2 0.8,-2 0.93333,-0.93334 2.13333,-0.93334 h 53.733332 q 1.2,0 2,0.93334 0.93334,0.8 0.93334,2 0,1.2 -0.93334,2.13333 -0.8,0.8 -2,0.8 z"
         style="font-style:normal;font-variant:normal;font-weight:normal;font-stretch:normal;font-size:133.33332825px;font-family:'CF Spaceship';-inkscape-font-specification:'CF Spaceship';fill:#ffffff;fill-opacity:1;stroke:none;stroke-width:3.77952766;stroke-linecap:round;stroke-linejoin:round;stroke-miterlimit:4;stroke-dasharray:none;stroke-opacity:1;paint-order:stroke fill markers"
         id="path882"
         inkscape:connector-curvature="0" />
      <path
         d="m 527.58748,486.42513 h -49.06667 q -1.2,0 -2.13333,-0.8 -0.8,-0.8 -0.8,-2.13334 0,-1.2 0.8,-2 0.93333,-0.8 2.13333,-0.8 h 49.06667 q 1.2,0 2,0.8 0.93333,0.8 0.93333,2 0,1.33334 -0.93333,2.13334 -0.8,0.8 -2,0.8 z m -49.06667,0 q -1.2,0 -2.13333,-0.93334 -0.8,-0.8 -0.8,-2 v -96.13333 q 0,-1.2 0.8,-2 0.93333,-0.93333 2.13333,-0.93333 1.2,0 2,0.93333 0.93334,0.8 0.93334,2 v 96.13333 q 0,1.2 -0.93334,2 -0.8,0.93334 -2,0.93334 z"
         style="font-style:normal;font-variant:normal;font-weight:normal;font-stretch:normal;font-size:133.33332825px;font-family:'CF Spaceship';-inkscape-font-specification:'CF Spaceship';fill:#ffffff;fill-opacity:1;stroke:none;stroke-width:3.77952766;stroke-linecap:round;stroke-linejoin:round;stroke-miterlimit:4;stroke-dasharray:none;stroke-opacity:1;paint-order:stroke fill markers"
         id="path884"
         inkscape:connector-curvature="0" />
      <path
         d="m 599.60625,414.82513 q -1.2,0 -2,-0.8 -0.8,-0.8 -0.8,-2 v -25.06667 q 0,-1.2 0.8,-2 0.8,-0.8 2,-0.8 1.2,0 2,0.8 0.93333,0.8 0.93333,2 v 25.06667 q 0,1.2 -0.93333,2 -0.8,0.8 -2,0.8 z m -54.66667,0 q -1.2,0 -2.13333,-0.8 -0.8,-0.8 -0.8,-2 v -25.06667 q 0,-1.2 0.8,-2 0.93333,-0.8 2.13333,-0.8 1.06667,0 1.86667,0.8 0.93333,0.8 0.93333,2 v 25.06667 q 0,1.2 -0.93333,2 -0.8,0.8 -1.86667,0.8 z m 27.33334,27.6 q -6.26667,0 -11.86667,-2.4 -5.46667,-2.4 -9.6,-6.53334 -4,-4.26666 -6.4,-9.86666 -2.4,-5.6 -2.4,-12 0,-1.2 0.8,-2 0.93333,-0.93333 2.13333,-0.93333 1.06667,0 1.86667,0.93333 0.93333,0.8 0.93333,2 0,5.2 1.86667,9.73333 2,4.53333 5.33333,8 3.33334,3.33333 7.73334,5.33333 4.53333,2 9.6,2 5.06666,0 9.46666,-2 4.53333,-2 7.86667,-5.33333 3.33333,-3.46667 5.2,-8 2,-4.53333 2,-9.73333 0,-1.2 0.8,-2 0.8,-0.93333 2,-0.93333 1.2,0 2,0.93333 0.93333,0.8 0.93333,2 0,6.4 -2.4,12 -2.4,5.6 -6.53333,9.86666 -4,4.13334 -9.6,6.53334 -5.46667,2.4 -11.73333,2.4 z m 0.13333,43.73333 q -1.2,0 -2.13333,-0.93333 -0.8,-0.93334 -0.8,-2.13334 v -41.2 q 0,-1.2 0.8,-2 0.93333,-0.93333 2.13333,-0.93333 1.2,0 2,0.93333 0.8,0.8 0.8,2 v 41.2 q 0,1.2 -0.8,2.13334 -0.8,0.93333 -2,0.93333 z"
         style="font-style:normal;font-variant:normal;font-weight:normal;font-stretch:normal;font-size:133.33332825px;font-family:'CF Spaceship';-inkscape-font-specification:'CF Spaceship';fill:#ffffff;fill-opacity:1;stroke:none;stroke-width:3.77952766;stroke-linecap:round;stroke-linejoin:round;stroke-miterlimit:4;stroke-dasharray:none;stroke-opacity:1;paint-order:stroke fill markers"
         id="path886"
         inkscape:connector-curvature="0" />
      <path
         d="m 648.42081,486.15846 q -7.33333,0 -13.86666,-2.13333 -6.4,-2.13334 -11.2,-5.73334 -4.8,-3.6 -7.6,-8.4 -2.8,-4.93333 -2.8,-10.4 0,-1.33333 0.8,-2.13333 0.93333,-0.8 2.13333,-0.8 1.2,0 2,0.8 0.93333,0.8 0.93333,2.13333 0,4.26667 2.26667,8.13334 2.4,3.73333 6.4,6.53333 4,2.8 9.33333,4.4 5.46667,1.6 11.6,1.6 6.13333,0 11.46667,-1.6 5.46666,-1.6 9.46666,-4.4 4.13334,-2.8 6.4,-6.53333 2.4,-3.86667 2.4,-8.13334 0,-8 -7.46666,-13.46666 -7.33334,-5.46667 -22.66667,-8 -16.26666,-2.8 -25.73333,-9.86667 -9.33333,-7.06667 -9.33333,-17.46667 0,-5.46666 2.8,-10.26666 2.8,-4.93333 7.6,-8.53333 4.8,-3.6 11.2,-5.73334 6.53333,-2.13333 13.86666,-2.13333 6.66667,0 12.66667,1.86667 6,1.73333 10.66666,4.8 4.8,3.06666 7.86667,7.33333 3.2,4.26667 4,9.2 0.26667,1.2 -0.53333,2.13333 -0.66667,0.93333 -1.73334,1.2 -1.2,0.26667 -2.26666,-0.4 -0.93334,-0.8 -1.2,-2 -0.66667,-3.86666 -3.33334,-7.2 -2.53333,-3.33333 -6.53333,-5.73333 -3.86667,-2.4 -8.93333,-3.73333 -5.06667,-1.46667 -10.66667,-1.46667 -6.13333,0 -11.6,1.6 -5.33333,1.6 -9.33333,4.4 -4,2.8 -6.4,6.66667 -2.26667,3.73333 -2.26667,7.99999 0,4.8 2.66667,8.4 2.66667,3.6 6.93333,6.26667 4.26667,2.66667 9.6,4.4 5.46667,1.6 10.93333,2.4 h 0.13334 q 34.93333,6.8 34.93333,27.33333 0,5.46667 -2.8,10.4 -2.8,4.8 -7.73333,8.4 -4.8,3.6 -11.33334,5.73334 -6.4,2.13333 -13.73333,2.13333 z m 32.66667,-72.53333 q -1.2,0 -2.13334,-0.8 -0.8,-0.8 -0.8,-2.13334 0,-0.66666 -0.13333,-1.19999 0,-0.66667 -0.13333,-1.33334 -0.26667,-1.2 0.4,-2.13333 0.8,-0.93333 2,-1.2 1.2,-0.26667 2.13333,0.53333 0.93333,0.66667 1.2,1.86667 0.4,1.6 0.4,3.46666 0,1.33334 -0.93333,2.13334 -0.8,0.8 -2,0.8 z"
         style="font-style:normal;font-variant:normal;font-weight:normal;font-stretch:normal;font-size:133.33332825px;font-family:'CF Spaceship';-inkscape-font-specification:'CF Spaceship';fill:#ffffff;fill-opacity:1;stroke:none;stroke-width:3.77952766;stroke-linecap:round;stroke-linejoin:round;stroke-miterlimit:4;stroke-dasharray:none;stroke-opacity:1;paint-order:stroke fill markers"
         id="path888"
         inkscape:connector-curvature="0" />
    </g>
    <path
       style="fill:#ffffff;fill-opacity:1;stroke:none;stroke-width:1;stroke-linecap:round;stroke-linejoin:round;stroke-miterlimit:4;stroke-dasharray:none;stroke-opacity:1"
       d="m 85.879342,100.65104 -0.06682,5.47902 -4.810852,3.27405 z"
       id="path1053"
       inkscape:connector-curvature="0" />
    <path
       style="fill:#ffffff;fill-opacity:1;stroke:none;stroke-width:1;stroke-linecap:round;stroke-linejoin:round;stroke-miterlimit:4;stroke-dasharray:none;stroke-opacity:1"
       d="m 103.81986,100.65104 0.0668,5.47902 4.81086,3.27405 z"
       id="path1053-3"
       inkscape:connector-curvature="0" />
    <path
       inkscape:connector-curvature="0"
       style="font-style:normal;font-variant:normal;font-weight:normal;font-stretch:normal;font-size:133.33332825px;line-height:1.25;font-family:'CF Spaceship';-inkscape-font-specification:'CF Spaceship';letter-spacing:0px;word-spacing:0px;fill:#ffffff;fill-opacity:1;stroke:none;stroke-width:1;stroke-linecap:round;stroke-linejoin:round;stroke-miterlimit:4;stroke-dasharray:none;stroke-opacity:1;paint-order:stroke fill markers"
       d="m 87.292464,111.35104 q -0.3175,0 -0.564444,-0.24694 -0.211667,-0.21167 -0.211667,-0.52917 V 92.512709 q 0,-0.3175 0.211667,-0.529167 0.246944,-0.246943 0.564444,-0.246943 0.3175,0 0.529167,0.246943 0.246944,0.211667 0.246944,0.529167 v 18.062221 q 0,0.3175 -0.246944,0.52917 -0.211667,0.24694 -0.529167,0.24694 z"
       id="path905" />
    <path
       inkscape:connector-curvature="0"
       style="font-style:normal;font-variant:normal;font-weight:normal;font-stretch:normal;font-size:133.33332825px;line-height:1.25;font-family:'CF Spaceship';-inkscape-font-specification:'CF Spaceship';letter-spacing:0px;word-spacing:0px;fill:#ffffff;fill-opacity:1;stroke:none;stroke-width:1;stroke-linecap:round;stroke-linejoin:round;stroke-miterlimit:4;stroke-dasharray:none;stroke-opacity:1;paint-order:stroke fill markers"
       d="m 101.96802,111.35104 q -0.3175,0 -0.56445,-0.24694 -0.21166,-0.21167 -0.21166,-0.52917 V 92.512709 q 0,-0.3175 0.21166,-0.529167 0.24695,-0.246943 0.56445,-0.246943 0.3175,0 0.52917,0.246943 0.24694,0.211667 0.24694,0.529167 v 18.062221 q 0,0.3175 -0.24694,0.52917 -0.21167,0.24694 -0.52917,0.24694 z"
       id="path903" />
    <path
       inkscape:connector-curvature="0"
       style="font-style:normal;font-variant:normal;font-weight:normal;font-stretch:normal;font-size:133.33332825px;line-height:1.25;font-family:'CF Spaceship';-inkscape-font-specification:'CF Spaceship';letter-spacing:0px;word-spacing:0px;fill:#ffffff;fill-opacity:1;stroke:none;stroke-width:1;stroke-linecap:round;stroke-linejoin:round;stroke-miterlimit:4;stroke-dasharray:none;stroke-opacity:1;paint-order:stroke fill markers"
       d="m 101.96802,93.394653 q -0.3175,0 -0.56445,-0.211667 -0.21166,-0.246944 -0.21166,-0.564444 0,-1.375833 -0.52917,-2.610553 -0.49389,-1.234723 -1.41111,-2.151946 -0.881944,-0.917221 -2.081389,-1.446388 -1.164166,-0.529166 -2.539999,-0.529166 -1.375834,0 -2.575278,0.529166 -1.164167,0.529167 -2.081389,1.446388 -0.881944,0.917223 -1.411111,2.151946 -0.493889,1.23472 -0.493889,2.610553 0,0.3175 -0.246944,0.564444 -0.211667,0.211667 -0.529167,0.211667 -0.3175,0 -0.564444,-0.211667 -0.211667,-0.246944 -0.211667,-0.564444 0,-1.693333 0.635,-3.210276 0.635,-1.516944 1.728611,-2.610557 1.128889,-1.128887 2.575278,-1.763887 1.481666,-0.670279 3.175,-0.670279 1.693333,0 3.139722,0.670279 1.481666,0.635 2.575276,1.763887 1.12889,1.093613 1.76389,2.610557 0.635,1.516943 0.635,3.210276 0,0.3175 -0.24694,0.564444 -0.21167,0.211667 -0.52917,0.211667 z"
       id="path901" />
    <g
       id="g926"
       transform="translate(72.928232,-17.278382)"
       style="stroke:none" />
    <path
       inkscape:connector-curvature="0"
       id="path4557"
       d="m 88.00667,78.932113 -2.818406,0.0137 -1.684171,0.9863 z"
       style="fill:#ffffff;fill-opacity:1;stroke:none;stroke-width:0.32474613;stroke-linecap:round;stroke-linejoin:round;stroke-miterlimit:4;stroke-dasharray:none;stroke-opacity:1"
       inkscape:export-filename="/home/vincent/Documents/cloud_infra/tp_note/docker_astralys/game/image/vaisseau/projectile.png"
       inkscape:export-xdpi="165.5594"
       inkscape:export-ydpi="165.5594" />
    <path
       inkscape:connector-curvature="0"
       d="m 31.144388,111.36868 q -1.94027,0 -3.66888,-0.56444 -1.69334,-0.56445 -2.96334,-1.51695 -1.27,-0.9525 -2.01083,-2.2225 -0.74083,-1.30527 -0.74083,-2.75166 0,-0.35278 0.21166,-0.56445 0.24695,-0.21166 0.56445,-0.21166 0.3175,0 0.52916,0.21166 0.24695,0.21167 0.24695,0.56445 0,1.12889 0.59972,2.15194 0.635,0.98778 1.69333,1.72861 1.05834,0.74084 2.46945,1.16417 1.44639,0.42333 3.06916,0.42333 1.62278,0 3.03389,-0.42333 1.44639,-0.42333 2.50472,-1.16417 1.09362,-0.74083 1.69334,-1.72861 0.635,-1.02305 0.635,-2.15194 0,-2.11667 -1.97556,-3.56306 -1.94028,-1.44639 -5.99722,-2.11666 -4.30389,-0.74084 -6.80861,-2.61056 -2.46944,-1.86973 -2.46944,-4.62139 0,-1.44639 0.74083,-2.71639 0.74083,-1.30528 2.01083,-2.25778 1.27,-0.9525 2.96334,-1.51694 1.72861,-0.56445 3.66888,-0.56445 1.76389,0 3.35139,0.49389 1.5875,0.45861 2.82222,1.27 1.27,0.81139 2.08139,1.94028 0.84667,1.12889 1.05834,2.43417 0.0706,0.3175 -0.14111,0.56444 -0.17639,0.24694 -0.45862,0.3175 -0.3175,0.0706 -0.59972,-0.10583 -0.24694,-0.21167 -0.3175,-0.52917 -0.17639,-1.02305 -0.88194,-1.905 -0.67028,-0.88194 -1.72861,-1.51694 -1.02306,-0.635 -2.36361,-0.98778 -1.34056,-0.38806 -2.82223,-0.38806 -1.62277,0 -3.06916,0.42334 -1.41111,0.42333 -2.46945,1.16416 -1.05833,0.74084 -1.69333,1.76389 -0.59972,0.98778 -0.59972,2.11667 0,1.27 0.70555,2.2225 0.70556,0.9525 1.83445,1.65805 1.12889,0.70556 2.54,1.16417 1.44639,0.42334 2.89277,0.635 h 0.0353 q 9.24278,1.79917 9.24278,7.23195 0,1.44639 -0.74083,2.75166 -0.74084,1.27 -2.04611,2.2225 -1.27,0.9525 -2.99862,1.51695 -1.69333,0.56444 -3.63361,0.56444 z m 8.64306,-19.19111 q -0.3175,0 -0.56445,-0.21167 -0.21166,-0.21166 -0.21166,-0.56444 0,-0.17639 -0.0353,-0.3175 0,-0.17639 -0.0353,-0.35278 -0.0706,-0.3175 0.10583,-0.56444 0.21167,-0.24695 0.52917,-0.3175 0.3175,-0.0706 0.56444,0.14111 0.24694,0.17639 0.3175,0.49389 0.10583,0.42333 0.10583,0.91722 0,0.35278 -0.24694,0.56444 -0.21167,0.21167 -0.52917,0.21167 z"
       style="font-style:normal;font-variant:normal;font-weight:normal;font-stretch:normal;font-size:133.33332825px;line-height:1.25;font-family:'CF Spaceship';-inkscape-font-specification:'CF Spaceship';letter-spacing:0px;word-spacing:0px;fill:#ffffff;fill-opacity:1;stroke:none;stroke-width:1;stroke-linecap:round;stroke-linejoin:round;stroke-miterlimit:4;stroke-dasharray:none;stroke-opacity:1;paint-order:stroke fill markers"
       id="path888-0" />
    <path
       style="fill:#ffffff;fill-opacity:1;fill-rule:nonzero;stroke:none;stroke-width:0.26458332px;stroke-linecap:butt;stroke-linejoin:miter;stroke-opacity:1"
       d="m 100.16441,126.68249 c 0,5.1e-4 -0.774003,-8.3e-4 -0.774005,-3.2e-4 -0.02673,7.26923 0.667095,29.07975 0.640365,36.34898 0.0267,-7.26923 0.8809,-29.07406 0.90763,-36.34329 0,-5e-4 -0.77399,-0.005 -0.77399,-0.005 z"
       id="path1365"
       inkscape:connector-curvature="0"
       inkscape:path-effect="#path-effect1367"
       inkscape:original-d="m 100.16441,126.68249 -0.13364,36.34866"
       transform="translate(-12.872195,-16.84119)" />
    <path
       inkscape:original-d="m 114.85823,126.23364 -0.13364,36.34866"
       inkscape:path-effect="#path-effect1371"
       inkscape:connector-curvature="0"
       id="path1369"
       d="m 114.85823,126.23364 c 0,5.1e-4 -0.774,-8.3e-4 -0.774,-3.2e-4 -0.0267,7.26923 0.66709,29.07975 0.64036,36.34898 0.0267,-7.26923 0.8809,-29.07406 0.90763,-36.34329 0,-5e-4 -0.77399,-0.005 -0.77399,-0.005 z"
       style="fill:#ffffff;fill-opacity:1;fill-rule:nonzero;stroke:none;stroke-width:0.26458332px;stroke-linecap:butt;stroke-linejoin:miter;stroke-opacity:1"
       transform="translate(-12.872195,-16.84119)" />
    <circle
       id="path44"
       cx="79.599869"
       cy="80.128845"
       style="fill:#ffffff;fill-opacity:1;stroke:none;stroke-width:0.13057432"
       r="0.375"
       inkscape:export-filename="/home/vincent/Documents/cloud_infra/tp_note/docker_astralys/game/image/vaisseau/particle.png"
       inkscape:export-xdpi="406.39856"
       inkscape:export-ydpi="406.39856" />
    <path
       style="fill:#ffffff;fill-opacity:1;stroke:none;stroke-width:0.54418826"
       d="m 85.188264,75.290151 h 6.45913 c 0.866038,0 1.563247,0.697208 1.563247,1.563248 0,0.866037 -0.697209,1.563247 -1.563247,1.563247 h -6.45913 c 0,-3.126495 0,0 0,-3.126495 z"
       id="rect4554"
       inkscape:connector-curvature="0"
       sodipodi:nodetypes="cssscc"
       inkscape:export-filename="/home/vincent/Documents/cloud_infra/tp_note/docker_astralys/game/image/vaisseau/projectile.png"
       inkscape:export-xdpi="165.5594"
       inkscape:export-ydpi="165.5594" />
    <path
       style="fill:#ffffff;fill-opacity:1;stroke:none;stroke-width:0.32474613;stroke-linecap:round;stroke-linejoin:round;stroke-miterlimit:4;stroke-dasharray:none;stroke-opacity:1"
       d="m 88.00667,74.795354 -2.818406,-0.0137 -1.684171,-0.9863 z"
       id="path4584"
       inkscape:connector-curvature="0"
       inkscape:export-filename="/home/vincent/Documents/cloud_infra/tp_note/docker_astralys/game/image/vaisseau/projectile.png"
       inkscape:export-xdpi="165.5594"
       inkscape:export-ydpi="165.5594" />
  </g>
</svg>
